<mxfile modified="2023-12-12T02:26:21.811Z" host="app.diagrams.net" agent="Mozilla/5.0 (Macintosh; Intel Mac OS X 10_15_7) AppleWebKit/537.36 (KHTML, like Gecko) Chrome/119.0.0.0 Safari/537.36" etag="luaj0haUYDqCcVDVNcd_" version="22.1.7" type="github">
  <diagram id="Ht1M8jgEwFfnCIfOTk4-" name="Page-1">
    <mxGraphModel dx="2385" dy="1413" grid="0" gridSize="10" guides="1" tooltips="1" connect="1" arrows="1" fold="1" page="1" pageScale="1" pageWidth="1169" pageHeight="827" math="0" shadow="0">
      <root>
        <mxCell id="0" />
        <mxCell id="1" parent="0" />
        <mxCell id="bBEaQ5eF0XYPvnPeb59N-3" value="&lt;font color=&quot;#006600&quot;&gt;AWS Account DevOps&lt;/font&gt;" style="points=[[0,0],[0.25,0],[0.5,0],[0.75,0],[1,0],[1,0.25],[1,0.5],[1,0.75],[1,1],[0.75,1],[0.5,1],[0.25,1],[0,1],[0,0.75],[0,0.5],[0,0.25]];outlineConnect=0;gradientColor=none;html=1;whiteSpace=wrap;fontSize=12;fontStyle=1;container=0;pointerEvents=0;collapsible=0;recursiveResize=0;shape=mxgraph.aws4.group;grIcon=mxgraph.aws4.group_account;strokeColor=#006600;fillColor=none;verticalAlign=top;align=left;spacingLeft=30;fontColor=#CD2264;dashed=0;" vertex="1" parent="1">
          <mxGeometry x="160" y="83" width="1189" height="891" as="geometry" />
        </mxCell>
        <mxCell id="bBEaQ5eF0XYPvnPeb59N-60" style="edgeStyle=orthogonalEdgeStyle;rounded=0;orthogonalLoop=1;jettySize=auto;html=1;entryX=0;entryY=0.5;entryDx=0;entryDy=0;" edge="1" parent="1" source="bBEaQ5eF0XYPvnPeb59N-4" target="bBEaQ5eF0XYPvnPeb59N-18">
          <mxGeometry relative="1" as="geometry" />
        </mxCell>
        <mxCell id="bBEaQ5eF0XYPvnPeb59N-4" value="DevOps&lt;br&gt;Engineer" style="sketch=0;outlineConnect=0;fontColor=#232F3E;gradientColor=none;fillColor=#232F3D;strokeColor=none;dashed=0;verticalLabelPosition=bottom;verticalAlign=top;align=center;html=1;fontSize=12;fontStyle=0;aspect=fixed;pointerEvents=1;shape=mxgraph.aws4.users;" vertex="1" parent="1">
          <mxGeometry x="39" y="566" width="58" height="58" as="geometry" />
        </mxCell>
        <mxCell id="bBEaQ5eF0XYPvnPeb59N-48" value="AWS Account TEST" style="points=[[0,0],[0.25,0],[0.5,0],[0.75,0],[1,0],[1,0.25],[1,0.5],[1,0.75],[1,1],[0.75,1],[0.5,1],[0.25,1],[0,1],[0,0.75],[0,0.5],[0,0.25]];outlineConnect=0;gradientColor=none;html=1;whiteSpace=wrap;fontSize=12;fontStyle=0;container=1;pointerEvents=0;collapsible=0;recursiveResize=0;shape=mxgraph.aws4.group;grIcon=mxgraph.aws4.group_account;strokeColor=#00994D;fillColor=none;verticalAlign=top;align=left;spacingLeft=30;fontColor=#00994D;dashed=0;" vertex="1" parent="1">
          <mxGeometry x="611" y="1058" width="390" height="199" as="geometry" />
        </mxCell>
        <mxCell id="bBEaQ5eF0XYPvnPeb59N-49" value="CICD CrossAccount&lt;br&gt;Role" style="sketch=0;outlineConnect=0;fontColor=#232F3E;gradientColor=none;fillColor=#DD344C;strokeColor=none;dashed=0;verticalLabelPosition=bottom;verticalAlign=top;align=center;html=1;fontSize=12;fontStyle=0;aspect=fixed;pointerEvents=1;shape=mxgraph.aws4.role;" vertex="1" parent="bBEaQ5eF0XYPvnPeb59N-48">
          <mxGeometry x="40" y="69" width="58" height="32.72" as="geometry" />
        </mxCell>
        <mxCell id="bBEaQ5eF0XYPvnPeb59N-50" value="" style="group" vertex="1" connectable="0" parent="bBEaQ5eF0XYPvnPeb59N-48">
          <mxGeometry x="160" y="49" width="204" height="121" as="geometry" />
        </mxCell>
        <mxCell id="bBEaQ5eF0XYPvnPeb59N-51" value="RESOURCES AWS" style="rounded=1;arcSize=0;dashed=1;fillColor=none;gradientColor=none;strokeWidth=1;strokeColor=#333333;labelPosition=center;verticalLabelPosition=top;align=center;verticalAlign=bottom;fontStyle=1;fontColor=#333333;" vertex="1" parent="bBEaQ5eF0XYPvnPeb59N-50">
          <mxGeometry width="204" height="121" as="geometry" />
        </mxCell>
        <mxCell id="bBEaQ5eF0XYPvnPeb59N-52" value="EC2" style="sketch=0;points=[[0,0,0],[0.25,0,0],[0.5,0,0],[0.75,0,0],[1,0,0],[0,1,0],[0.25,1,0],[0.5,1,0],[0.75,1,0],[1,1,0],[0,0.25,0],[0,0.5,0],[0,0.75,0],[1,0.25,0],[1,0.5,0],[1,0.75,0]];outlineConnect=0;fontColor=#232F3E;fillColor=#ED7100;strokeColor=#ffffff;dashed=0;verticalLabelPosition=bottom;verticalAlign=top;align=center;html=1;fontSize=12;fontStyle=0;aspect=fixed;shape=mxgraph.aws4.resourceIcon;resIcon=mxgraph.aws4.ec2;" vertex="1" parent="bBEaQ5eF0XYPvnPeb59N-50">
          <mxGeometry x="26" y="31.5" width="58" height="58" as="geometry" />
        </mxCell>
        <mxCell id="bBEaQ5eF0XYPvnPeb59N-53" value="RDS" style="sketch=0;points=[[0,0,0],[0.25,0,0],[0.5,0,0],[0.75,0,0],[1,0,0],[0,1,0],[0.25,1,0],[0.5,1,0],[0.75,1,0],[1,1,0],[0,0.25,0],[0,0.5,0],[0,0.75,0],[1,0.25,0],[1,0.5,0],[1,0.75,0]];outlineConnect=0;fontColor=#232F3E;fillColor=#C925D1;strokeColor=#ffffff;dashed=0;verticalLabelPosition=bottom;verticalAlign=top;align=center;html=1;fontSize=12;fontStyle=0;aspect=fixed;shape=mxgraph.aws4.resourceIcon;resIcon=mxgraph.aws4.rds;" vertex="1" parent="bBEaQ5eF0XYPvnPeb59N-50">
          <mxGeometry x="122" y="31.5" width="58" height="58" as="geometry" />
        </mxCell>
        <mxCell id="bBEaQ5eF0XYPvnPeb59N-54" value="AWS Account TEST" style="points=[[0,0],[0.25,0],[0.5,0],[0.75,0],[1,0],[1,0.25],[1,0.5],[1,0.75],[1,1],[0.75,1],[0.5,1],[0.25,1],[0,1],[0,0.75],[0,0.5],[0,0.25]];outlineConnect=0;gradientColor=none;html=1;whiteSpace=wrap;fontSize=12;fontStyle=0;container=1;pointerEvents=0;collapsible=0;recursiveResize=0;shape=mxgraph.aws4.group;grIcon=mxgraph.aws4.group_account;strokeColor=#007FFF;fillColor=none;verticalAlign=top;align=left;spacingLeft=30;fontColor=#007FFF;dashed=0;" vertex="1" parent="1">
          <mxGeometry x="1055" y="1058" width="390" height="199" as="geometry" />
        </mxCell>
        <mxCell id="bBEaQ5eF0XYPvnPeb59N-55" value="CICD CrossAccount&lt;br&gt;Role" style="sketch=0;outlineConnect=0;fontColor=#232F3E;gradientColor=none;fillColor=#DD344C;strokeColor=none;dashed=0;verticalLabelPosition=bottom;verticalAlign=top;align=center;html=1;fontSize=12;fontStyle=0;aspect=fixed;pointerEvents=1;shape=mxgraph.aws4.role;" vertex="1" parent="bBEaQ5eF0XYPvnPeb59N-54">
          <mxGeometry x="40" y="69" width="58" height="32.72" as="geometry" />
        </mxCell>
        <mxCell id="bBEaQ5eF0XYPvnPeb59N-56" value="" style="group" vertex="1" connectable="0" parent="bBEaQ5eF0XYPvnPeb59N-54">
          <mxGeometry x="160" y="49" width="204" height="121" as="geometry" />
        </mxCell>
        <mxCell id="bBEaQ5eF0XYPvnPeb59N-57" value="RESOURCES AWS" style="rounded=1;arcSize=0;dashed=1;fillColor=none;gradientColor=none;strokeWidth=1;strokeColor=#333333;labelPosition=center;verticalLabelPosition=top;align=center;verticalAlign=bottom;fontStyle=1;fontColor=#333333;" vertex="1" parent="bBEaQ5eF0XYPvnPeb59N-56">
          <mxGeometry width="204" height="121" as="geometry" />
        </mxCell>
        <mxCell id="bBEaQ5eF0XYPvnPeb59N-58" value="EC2" style="sketch=0;points=[[0,0,0],[0.25,0,0],[0.5,0,0],[0.75,0,0],[1,0,0],[0,1,0],[0.25,1,0],[0.5,1,0],[0.75,1,0],[1,1,0],[0,0.25,0],[0,0.5,0],[0,0.75,0],[1,0.25,0],[1,0.5,0],[1,0.75,0]];outlineConnect=0;fontColor=#232F3E;fillColor=#ED7100;strokeColor=#ffffff;dashed=0;verticalLabelPosition=bottom;verticalAlign=top;align=center;html=1;fontSize=12;fontStyle=0;aspect=fixed;shape=mxgraph.aws4.resourceIcon;resIcon=mxgraph.aws4.ec2;" vertex="1" parent="bBEaQ5eF0XYPvnPeb59N-56">
          <mxGeometry x="26" y="31.5" width="58" height="58" as="geometry" />
        </mxCell>
        <mxCell id="bBEaQ5eF0XYPvnPeb59N-59" value="RDS" style="sketch=0;points=[[0,0,0],[0.25,0,0],[0.5,0,0],[0.75,0,0],[1,0,0],[0,1,0],[0.25,1,0],[0.5,1,0],[0.75,1,0],[1,1,0],[0,0.25,0],[0,0.5,0],[0,0.75,0],[1,0.25,0],[1,0.5,0],[1,0.75,0]];outlineConnect=0;fontColor=#232F3E;fillColor=#C925D1;strokeColor=#ffffff;dashed=0;verticalLabelPosition=bottom;verticalAlign=top;align=center;html=1;fontSize=12;fontStyle=0;aspect=fixed;shape=mxgraph.aws4.resourceIcon;resIcon=mxgraph.aws4.rds;" vertex="1" parent="bBEaQ5eF0XYPvnPeb59N-56">
          <mxGeometry x="122" y="31.5" width="58" height="58" as="geometry" />
        </mxCell>
        <mxCell id="bBEaQ5eF0XYPvnPeb59N-34" value="AWS Account DEV" style="points=[[0,0],[0.25,0],[0.5,0],[0.75,0],[1,0],[1,0.25],[1,0.5],[1,0.75],[1,1],[0.75,1],[0.5,1],[0.25,1],[0,1],[0,0.75],[0,0.5],[0,0.25]];outlineConnect=0;gradientColor=none;html=1;whiteSpace=wrap;fontSize=12;fontStyle=0;container=1;pointerEvents=0;collapsible=0;recursiveResize=0;shape=mxgraph.aws4.group;grIcon=mxgraph.aws4.group_account;strokeColor=#CD2264;fillColor=none;verticalAlign=top;align=left;spacingLeft=30;fontColor=#CD2264;dashed=0;" vertex="1" parent="1">
          <mxGeometry x="160" y="1058" width="390" height="199" as="geometry" />
        </mxCell>
        <mxCell id="bBEaQ5eF0XYPvnPeb59N-36" value="CICD CrossAccount&lt;br&gt;Role" style="sketch=0;outlineConnect=0;fontColor=#232F3E;gradientColor=none;fillColor=#DD344C;strokeColor=none;dashed=0;verticalLabelPosition=bottom;verticalAlign=top;align=center;html=1;fontSize=12;fontStyle=0;aspect=fixed;pointerEvents=1;shape=mxgraph.aws4.role;" vertex="1" parent="bBEaQ5eF0XYPvnPeb59N-34">
          <mxGeometry x="40" y="69" width="58" height="32.72" as="geometry" />
        </mxCell>
        <mxCell id="bBEaQ5eF0XYPvnPeb59N-40" value="" style="group" vertex="1" connectable="0" parent="bBEaQ5eF0XYPvnPeb59N-34">
          <mxGeometry x="160" y="49" width="204" height="121" as="geometry" />
        </mxCell>
        <mxCell id="bBEaQ5eF0XYPvnPeb59N-39" value="RESOURCES AWS" style="rounded=1;arcSize=0;dashed=1;fillColor=none;gradientColor=none;strokeWidth=1;strokeColor=#333333;labelPosition=center;verticalLabelPosition=top;align=center;verticalAlign=bottom;fontStyle=1;fontColor=#333333;" vertex="1" parent="bBEaQ5eF0XYPvnPeb59N-40">
          <mxGeometry width="204" height="121" as="geometry" />
        </mxCell>
        <mxCell id="bBEaQ5eF0XYPvnPeb59N-37" value="EC2" style="sketch=0;points=[[0,0,0],[0.25,0,0],[0.5,0,0],[0.75,0,0],[1,0,0],[0,1,0],[0.25,1,0],[0.5,1,0],[0.75,1,0],[1,1,0],[0,0.25,0],[0,0.5,0],[0,0.75,0],[1,0.25,0],[1,0.5,0],[1,0.75,0]];outlineConnect=0;fontColor=#232F3E;fillColor=#ED7100;strokeColor=#ffffff;dashed=0;verticalLabelPosition=bottom;verticalAlign=top;align=center;html=1;fontSize=12;fontStyle=0;aspect=fixed;shape=mxgraph.aws4.resourceIcon;resIcon=mxgraph.aws4.ec2;" vertex="1" parent="bBEaQ5eF0XYPvnPeb59N-40">
          <mxGeometry x="26" y="31.5" width="58" height="58" as="geometry" />
        </mxCell>
        <mxCell id="bBEaQ5eF0XYPvnPeb59N-38" value="RDS" style="sketch=0;points=[[0,0,0],[0.25,0,0],[0.5,0,0],[0.75,0,0],[1,0,0],[0,1,0],[0.25,1,0],[0.5,1,0],[0.75,1,0],[1,1,0],[0,0.25,0],[0,0.5,0],[0,0.75,0],[1,0.25,0],[1,0.5,0],[1,0.75,0]];outlineConnect=0;fontColor=#232F3E;fillColor=#C925D1;strokeColor=#ffffff;dashed=0;verticalLabelPosition=bottom;verticalAlign=top;align=center;html=1;fontSize=12;fontStyle=0;aspect=fixed;shape=mxgraph.aws4.resourceIcon;resIcon=mxgraph.aws4.rds;" vertex="1" parent="bBEaQ5eF0XYPvnPeb59N-40">
          <mxGeometry x="122" y="31.5" width="58" height="58" as="geometry" />
        </mxCell>
        <mxCell id="bBEaQ5eF0XYPvnPeb59N-62" style="edgeStyle=orthogonalEdgeStyle;rounded=0;orthogonalLoop=1;jettySize=auto;html=1;exitX=0.5;exitY=1;exitDx=0;exitDy=0;" edge="1" parent="1" source="bBEaQ5eF0XYPvnPeb59N-24" target="bBEaQ5eF0XYPvnPeb59N-34">
          <mxGeometry relative="1" as="geometry">
            <Array as="points">
              <mxPoint x="695" y="1007" />
              <mxPoint x="355" y="1007" />
            </Array>
          </mxGeometry>
        </mxCell>
        <mxCell id="bBEaQ5eF0XYPvnPeb59N-72" style="edgeStyle=orthogonalEdgeStyle;rounded=0;orthogonalLoop=1;jettySize=auto;html=1;entryX=0.5;entryY=0;entryDx=0;entryDy=0;" edge="1" parent="1" source="bBEaQ5eF0XYPvnPeb59N-63" target="bBEaQ5eF0XYPvnPeb59N-48">
          <mxGeometry relative="1" as="geometry">
            <Array as="points">
              <mxPoint x="867" y="1007" />
              <mxPoint x="799" y="1007" />
            </Array>
          </mxGeometry>
        </mxCell>
        <mxCell id="bBEaQ5eF0XYPvnPeb59N-73" style="edgeStyle=orthogonalEdgeStyle;rounded=0;orthogonalLoop=1;jettySize=auto;html=1;" edge="1" parent="1" source="bBEaQ5eF0XYPvnPeb59N-69" target="bBEaQ5eF0XYPvnPeb59N-54">
          <mxGeometry relative="1" as="geometry">
            <Array as="points">
              <mxPoint x="1105" y="1007" />
              <mxPoint x="1250" y="1007" />
            </Array>
          </mxGeometry>
        </mxCell>
        <mxCell id="bBEaQ5eF0XYPvnPeb59N-15" value="" style="rounded=1;arcSize=0;fillColor=none;gradientColor=none;strokeWidth=2;strokeColor=#C925D1;" vertex="1" parent="1">
          <mxGeometry x="210" y="420" width="1022" height="310" as="geometry" />
        </mxCell>
        <mxCell id="bBEaQ5eF0XYPvnPeb59N-22" value="CodePipeline" style="sketch=0;points=[[0,0,0],[0.25,0,0],[0.5,0,0],[0.75,0,0],[1,0,0],[0,1,0],[0.25,1,0],[0.5,1,0],[0.75,1,0],[1,1,0],[0,0.25,0],[0,0.5,0],[0,0.75,0],[1,0.25,0],[1,0.5,0],[1,0.75,0]];outlineConnect=0;fontColor=#232F3E;fillColor=#C925D1;strokeColor=#ffffff;dashed=0;verticalLabelPosition=middle;verticalAlign=middle;align=left;html=1;fontSize=12;fontStyle=1;aspect=fixed;shape=mxgraph.aws4.resourceIcon;resIcon=mxgraph.aws4.codepipeline;labelPosition=right;" vertex="1" parent="1">
          <mxGeometry x="210" y="420" width="58" height="58" as="geometry" />
        </mxCell>
        <mxCell id="bBEaQ5eF0XYPvnPeb59N-42" value="" style="group" vertex="1" connectable="0" parent="1">
          <mxGeometry x="280" y="520" width="130" height="150" as="geometry" />
        </mxCell>
        <mxCell id="bBEaQ5eF0XYPvnPeb59N-18" value="SOURCE" style="rounded=1;arcSize=0;dashed=1;fillColor=none;gradientColor=none;strokeWidth=1;strokeColor=#C925D1;labelPosition=center;verticalLabelPosition=top;align=center;verticalAlign=bottom;fontStyle=1;fontColor=#C925D1;" vertex="1" parent="bBEaQ5eF0XYPvnPeb59N-42">
          <mxGeometry width="130" height="150" as="geometry" />
        </mxCell>
        <mxCell id="bBEaQ5eF0XYPvnPeb59N-9" value="CodeCommit" style="sketch=0;points=[[0,0,0],[0.25,0,0],[0.5,0,0],[0.75,0,0],[1,0,0],[0,1,0],[0.25,1,0],[0.5,1,0],[0.75,1,0],[1,1,0],[0,0.25,0],[0,0.5,0],[0,0.75,0],[1,0.25,0],[1,0.5,0],[1,0.75,0]];outlineConnect=0;fontColor=#232F3E;fillColor=#C925D1;strokeColor=#ffffff;dashed=0;verticalLabelPosition=bottom;verticalAlign=top;align=center;html=1;fontSize=12;fontStyle=1;aspect=fixed;shape=mxgraph.aws4.resourceIcon;resIcon=mxgraph.aws4.codecommit;" vertex="1" parent="bBEaQ5eF0XYPvnPeb59N-42">
          <mxGeometry x="36" y="31" width="58" height="58" as="geometry" />
        </mxCell>
        <mxCell id="bBEaQ5eF0XYPvnPeb59N-20" style="edgeStyle=orthogonalEdgeStyle;rounded=0;orthogonalLoop=1;jettySize=auto;html=1;exitX=0.5;exitY=1;exitDx=0;exitDy=0;" edge="1" parent="bBEaQ5eF0XYPvnPeb59N-42" source="bBEaQ5eF0XYPvnPeb59N-18" target="bBEaQ5eF0XYPvnPeb59N-18">
          <mxGeometry relative="1" as="geometry" />
        </mxCell>
        <mxCell id="bBEaQ5eF0XYPvnPeb59N-44" style="edgeStyle=orthogonalEdgeStyle;rounded=0;orthogonalLoop=1;jettySize=auto;html=1;exitX=1;exitY=0.5;exitDx=0;exitDy=0;entryX=0;entryY=0.5;entryDx=0;entryDy=0;" edge="1" parent="1" source="bBEaQ5eF0XYPvnPeb59N-21" target="bBEaQ5eF0XYPvnPeb59N-24">
          <mxGeometry relative="1" as="geometry" />
        </mxCell>
        <mxCell id="bBEaQ5eF0XYPvnPeb59N-21" value="BUILD &amp; TEST" style="rounded=1;arcSize=0;dashed=1;fillColor=none;gradientColor=none;strokeWidth=1;strokeColor=#C925D1;labelPosition=center;verticalLabelPosition=top;align=center;verticalAlign=bottom;fontStyle=1;fontColor=#C925D1;" vertex="1" parent="1">
          <mxGeometry x="455" y="520" width="130" height="150" as="geometry" />
        </mxCell>
        <mxCell id="bBEaQ5eF0XYPvnPeb59N-8" value="CodeBuild" style="sketch=0;points=[[0,0,0],[0.25,0,0],[0.5,0,0],[0.75,0,0],[1,0,0],[0,1,0],[0.25,1,0],[0.5,1,0],[0.75,1,0],[1,1,0],[0,0.25,0],[0,0.5,0],[0,0.75,0],[1,0.25,0],[1,0.5,0],[1,0.75,0]];outlineConnect=0;fontColor=#232F3E;fillColor=#C925D1;strokeColor=#ffffff;dashed=0;verticalLabelPosition=bottom;verticalAlign=top;align=center;html=1;fontSize=12;fontStyle=1;aspect=fixed;shape=mxgraph.aws4.resourceIcon;resIcon=mxgraph.aws4.codebuild;" vertex="1" parent="1">
          <mxGeometry x="491" y="551" width="58" height="58" as="geometry" />
        </mxCell>
        <mxCell id="bBEaQ5eF0XYPvnPeb59N-43" style="edgeStyle=orthogonalEdgeStyle;rounded=0;orthogonalLoop=1;jettySize=auto;html=1;exitX=1;exitY=0.5;exitDx=0;exitDy=0;entryX=0;entryY=0.5;entryDx=0;entryDy=0;" edge="1" parent="1" source="bBEaQ5eF0XYPvnPeb59N-18" target="bBEaQ5eF0XYPvnPeb59N-21">
          <mxGeometry relative="1" as="geometry" />
        </mxCell>
        <mxCell id="bBEaQ5eF0XYPvnPeb59N-65" style="edgeStyle=orthogonalEdgeStyle;rounded=0;orthogonalLoop=1;jettySize=auto;html=1;entryX=0;entryY=0.5;entryDx=0;entryDy=0;" edge="1" parent="1" source="bBEaQ5eF0XYPvnPeb59N-24" target="bBEaQ5eF0XYPvnPeb59N-63">
          <mxGeometry relative="1" as="geometry" />
        </mxCell>
        <mxCell id="bBEaQ5eF0XYPvnPeb59N-24" value="DEPLOY DEV" style="rounded=1;arcSize=0;dashed=1;fillColor=none;gradientColor=none;strokeWidth=1;strokeColor=#C925D1;labelPosition=center;verticalLabelPosition=top;align=center;verticalAlign=bottom;fontStyle=1;fontColor=#C925D1;" vertex="1" parent="1">
          <mxGeometry x="630" y="520" width="130" height="150" as="geometry" />
        </mxCell>
        <mxCell id="bBEaQ5eF0XYPvnPeb59N-25" value="CodeBuild" style="sketch=0;points=[[0,0,0],[0.25,0,0],[0.5,0,0],[0.75,0,0],[1,0,0],[0,1,0],[0.25,1,0],[0.5,1,0],[0.75,1,0],[1,1,0],[0,0.25,0],[0,0.5,0],[0,0.75,0],[1,0.25,0],[1,0.5,0],[1,0.75,0]];outlineConnect=0;fontColor=#232F3E;fillColor=#C925D1;strokeColor=#ffffff;dashed=0;verticalLabelPosition=bottom;verticalAlign=top;align=center;html=1;fontSize=12;fontStyle=1;aspect=fixed;shape=mxgraph.aws4.resourceIcon;resIcon=mxgraph.aws4.codebuild;" vertex="1" parent="1">
          <mxGeometry x="666" y="551" width="58" height="58" as="geometry" />
        </mxCell>
        <mxCell id="bBEaQ5eF0XYPvnPeb59N-46" style="edgeStyle=orthogonalEdgeStyle;rounded=0;orthogonalLoop=1;jettySize=auto;html=1;" edge="1" parent="1" source="bBEaQ5eF0XYPvnPeb59N-27" target="bBEaQ5eF0XYPvnPeb59N-15">
          <mxGeometry relative="1" as="geometry">
            <Array as="points">
              <mxPoint x="290" y="767" />
              <mxPoint x="290" y="767" />
            </Array>
          </mxGeometry>
        </mxCell>
        <mxCell id="bBEaQ5eF0XYPvnPeb59N-6" value="CodePipeline&lt;br&gt;Artifacs" style="sketch=0;outlineConnect=0;fontColor=#232F3E;gradientColor=none;fillColor=#7AA116;strokeColor=none;dashed=0;verticalLabelPosition=bottom;verticalAlign=top;align=center;html=1;fontSize=12;fontStyle=0;aspect=fixed;pointerEvents=1;shape=mxgraph.aws4.bucket_with_objects;" vertex="1" parent="1">
          <mxGeometry x="472" y="805" width="58" height="60.32" as="geometry" />
        </mxCell>
        <mxCell id="bBEaQ5eF0XYPvnPeb59N-47" style="edgeStyle=orthogonalEdgeStyle;rounded=0;orthogonalLoop=1;jettySize=auto;html=1;entryX=0.358;entryY=1;entryDx=0;entryDy=0;entryPerimeter=0;" edge="1" parent="1" source="bBEaQ5eF0XYPvnPeb59N-6" target="bBEaQ5eF0XYPvnPeb59N-15">
          <mxGeometry relative="1" as="geometry" />
        </mxCell>
        <mxCell id="bBEaQ5eF0XYPvnPeb59N-61" value="" style="group" vertex="1" connectable="0" parent="1">
          <mxGeometry x="217" y="777" width="220" height="130" as="geometry" />
        </mxCell>
        <mxCell id="bBEaQ5eF0XYPvnPeb59N-27" value="IAM ROLES" style="rounded=1;arcSize=0;dashed=1;fillColor=none;gradientColor=none;dashPattern=1 1;strokeWidth=2;labelPosition=center;verticalLabelPosition=bottom;align=center;verticalAlign=top;fontStyle=1" vertex="1" parent="bBEaQ5eF0XYPvnPeb59N-61">
          <mxGeometry width="220" height="130" as="geometry" />
        </mxCell>
        <mxCell id="bBEaQ5eF0XYPvnPeb59N-12" value="CodePipeline&lt;br&gt;ServiceRole" style="sketch=0;outlineConnect=0;fontColor=#232F3E;gradientColor=none;fillColor=#DD344C;strokeColor=none;dashed=0;verticalLabelPosition=bottom;verticalAlign=top;align=center;html=1;fontSize=12;fontStyle=0;aspect=fixed;pointerEvents=1;shape=mxgraph.aws4.role;" vertex="1" parent="bBEaQ5eF0XYPvnPeb59N-61">
          <mxGeometry x="26" y="30" width="58" height="32.72" as="geometry" />
        </mxCell>
        <mxCell id="bBEaQ5eF0XYPvnPeb59N-13" value="CodeBuild&lt;br&gt;ServiceRole" style="sketch=0;outlineConnect=0;fontColor=#232F3E;gradientColor=none;fillColor=#DD344C;strokeColor=none;dashed=0;verticalLabelPosition=bottom;verticalAlign=top;align=center;html=1;fontSize=12;fontStyle=0;aspect=fixed;pointerEvents=1;shape=mxgraph.aws4.role;" vertex="1" parent="bBEaQ5eF0XYPvnPeb59N-61">
          <mxGeometry x="134" y="30" width="58" height="32.72" as="geometry" />
        </mxCell>
        <mxCell id="bBEaQ5eF0XYPvnPeb59N-71" style="edgeStyle=orthogonalEdgeStyle;rounded=0;orthogonalLoop=1;jettySize=auto;html=1;exitX=1;exitY=0.5;exitDx=0;exitDy=0;entryX=0;entryY=0.5;entryDx=0;entryDy=0;" edge="1" parent="1" source="bBEaQ5eF0XYPvnPeb59N-63" target="bBEaQ5eF0XYPvnPeb59N-69">
          <mxGeometry relative="1" as="geometry" />
        </mxCell>
        <mxCell id="bBEaQ5eF0XYPvnPeb59N-75" value="MANUAL&lt;br&gt;APPROVAL" style="edgeLabel;html=1;align=center;verticalAlign=top;resizable=0;points=[];labelPosition=center;verticalLabelPosition=bottom;" vertex="1" connectable="0" parent="bBEaQ5eF0XYPvnPeb59N-71">
          <mxGeometry x="-0.2039" y="1" relative="1" as="geometry">
            <mxPoint x="9" y="1" as="offset" />
          </mxGeometry>
        </mxCell>
        <mxCell id="bBEaQ5eF0XYPvnPeb59N-63" value="DEPLOY TEST" style="rounded=1;arcSize=0;dashed=1;fillColor=none;gradientColor=none;strokeWidth=1;strokeColor=#C925D1;labelPosition=center;verticalLabelPosition=top;align=center;verticalAlign=bottom;fontStyle=1;fontColor=#C925D1;" vertex="1" parent="1">
          <mxGeometry x="802" y="520" width="130" height="150" as="geometry" />
        </mxCell>
        <mxCell id="bBEaQ5eF0XYPvnPeb59N-64" value="CodeBuild" style="sketch=0;points=[[0,0,0],[0.25,0,0],[0.5,0,0],[0.75,0,0],[1,0,0],[0,1,0],[0.25,1,0],[0.5,1,0],[0.75,1,0],[1,1,0],[0,0.25,0],[0,0.5,0],[0,0.75,0],[1,0.25,0],[1,0.5,0],[1,0.75,0]];outlineConnect=0;fontColor=#232F3E;fillColor=#C925D1;strokeColor=#ffffff;dashed=0;verticalLabelPosition=bottom;verticalAlign=top;align=center;html=1;fontSize=12;fontStyle=1;aspect=fixed;shape=mxgraph.aws4.resourceIcon;resIcon=mxgraph.aws4.codebuild;" vertex="1" parent="1">
          <mxGeometry x="838" y="546" width="58" height="58" as="geometry" />
        </mxCell>
        <mxCell id="bBEaQ5eF0XYPvnPeb59N-74" value="" style="group" vertex="1" connectable="0" parent="1">
          <mxGeometry x="1035" y="520" width="130" height="150" as="geometry" />
        </mxCell>
        <mxCell id="bBEaQ5eF0XYPvnPeb59N-69" value="DEPLOY PROD" style="rounded=1;arcSize=0;dashed=1;fillColor=none;gradientColor=none;strokeWidth=1;strokeColor=#C925D1;labelPosition=center;verticalLabelPosition=top;align=center;verticalAlign=bottom;fontStyle=1;fontColor=#C925D1;" vertex="1" parent="bBEaQ5eF0XYPvnPeb59N-74">
          <mxGeometry width="130" height="150" as="geometry" />
        </mxCell>
        <mxCell id="bBEaQ5eF0XYPvnPeb59N-68" value="CodeBuild" style="sketch=0;points=[[0,0,0],[0.25,0,0],[0.5,0,0],[0.75,0,0],[1,0,0],[0,1,0],[0.25,1,0],[0.5,1,0],[0.75,1,0],[1,1,0],[0,0.25,0],[0,0.5,0],[0,0.75,0],[1,0.25,0],[1,0.5,0],[1,0.75,0]];outlineConnect=0;fontColor=#232F3E;fillColor=#C925D1;strokeColor=#ffffff;dashed=0;verticalLabelPosition=bottom;verticalAlign=top;align=center;html=1;fontSize=12;fontStyle=1;aspect=fixed;shape=mxgraph.aws4.resourceIcon;resIcon=mxgraph.aws4.codebuild;" vertex="1" parent="bBEaQ5eF0XYPvnPeb59N-74">
          <mxGeometry x="36" y="28" width="58" height="58" as="geometry" />
        </mxCell>
        <mxCell id="bBEaQ5eF0XYPvnPeb59N-88" style="edgeStyle=orthogonalEdgeStyle;rounded=0;orthogonalLoop=1;jettySize=auto;html=1;" edge="1" parent="1" source="bBEaQ5eF0XYPvnPeb59N-76" target="bBEaQ5eF0XYPvnPeb59N-84">
          <mxGeometry relative="1" as="geometry" />
        </mxCell>
        <mxCell id="bBEaQ5eF0XYPvnPeb59N-90" style="edgeStyle=orthogonalEdgeStyle;rounded=0;orthogonalLoop=1;jettySize=auto;html=1;startArrow=classic;startFill=1;" edge="1" parent="1" source="bBEaQ5eF0XYPvnPeb59N-76">
          <mxGeometry relative="1" as="geometry">
            <mxPoint x="980" y="586" as="targetPoint" />
          </mxGeometry>
        </mxCell>
        <mxCell id="bBEaQ5eF0XYPvnPeb59N-76" value="SNS" style="sketch=0;points=[[0,0,0],[0.25,0,0],[0.5,0,0],[0.75,0,0],[1,0,0],[0,1,0],[0.25,1,0],[0.5,1,0],[0.75,1,0],[1,1,0],[0,0.25,0],[0,0.5,0],[0,0.75,0],[1,0.25,0],[1,0.5,0],[1,0.75,0]];outlineConnect=0;fontColor=#232F3E;fillColor=#E7157B;strokeColor=#ffffff;dashed=0;verticalLabelPosition=top;verticalAlign=bottom;align=center;html=1;fontSize=12;fontStyle=0;aspect=fixed;shape=mxgraph.aws4.resourceIcon;resIcon=mxgraph.aws4.sns;labelPosition=center;" vertex="1" parent="1">
          <mxGeometry x="951" y="220" width="58" height="58" as="geometry" />
        </mxCell>
        <mxCell id="bBEaQ5eF0XYPvnPeb59N-79" value="APPROVER" style="sketch=0;outlineConnect=0;fontColor=#232F3E;gradientColor=none;fillColor=#232F3D;strokeColor=none;dashed=0;verticalLabelPosition=bottom;verticalAlign=top;align=center;html=1;fontSize=12;fontStyle=0;aspect=fixed;pointerEvents=1;shape=mxgraph.aws4.user;" vertex="1" parent="1">
          <mxGeometry x="1250" y="220" width="58" height="58" as="geometry" />
        </mxCell>
        <mxCell id="bBEaQ5eF0XYPvnPeb59N-87" value="" style="group" vertex="1" connectable="0" parent="1">
          <mxGeometry x="1059" y="120" width="128" height="258" as="geometry" />
        </mxCell>
        <mxCell id="bBEaQ5eF0XYPvnPeb59N-77" value="" style="sketch=0;outlineConnect=0;fontColor=#232F3E;gradientColor=none;fillColor=#E7157B;strokeColor=none;dashed=0;verticalLabelPosition=bottom;verticalAlign=top;align=center;html=1;fontSize=12;fontStyle=0;aspect=fixed;pointerEvents=1;shape=mxgraph.aws4.email_notification;" vertex="1" parent="bBEaQ5eF0XYPvnPeb59N-87">
          <mxGeometry x="35" y="23" width="58" height="58" as="geometry" />
        </mxCell>
        <mxCell id="bBEaQ5eF0XYPvnPeb59N-80" value="" style="shape=image;html=1;verticalAlign=top;verticalLabelPosition=bottom;labelBackgroundColor=#ffffff;imageAspect=0;aspect=fixed;image=https://cdn2.iconfinder.com/data/icons/social-media-2285/512/1_Slack_colored_svg-128.png" vertex="1" parent="bBEaQ5eF0XYPvnPeb59N-87">
          <mxGeometry x="35" y="181" width="58" height="58" as="geometry" />
        </mxCell>
        <mxCell id="bBEaQ5eF0XYPvnPeb59N-81" value="" style="shape=image;verticalLabelPosition=bottom;labelBackgroundColor=default;verticalAlign=top;aspect=fixed;imageAspect=0;image=https://upload.wikimedia.org/wikipedia/commons/thumb/c/c9/Microsoft_Office_Teams_%282018%E2%80%93present%29.svg/826px-Microsoft_Office_Teams_%282018%E2%80%93present%29.svg.png;" vertex="1" parent="bBEaQ5eF0XYPvnPeb59N-87">
          <mxGeometry x="35" y="101" width="58" height="53.93" as="geometry" />
        </mxCell>
        <mxCell id="bBEaQ5eF0XYPvnPeb59N-84" value="CHANNELS" style="rounded=1;arcSize=0;dashed=1;fillColor=none;gradientColor=none;dashPattern=1 1;strokeWidth=2;labelPosition=center;verticalLabelPosition=bottom;align=center;verticalAlign=top;fontStyle=1" vertex="1" parent="bBEaQ5eF0XYPvnPeb59N-87">
          <mxGeometry width="128" height="258" as="geometry" />
        </mxCell>
        <mxCell id="bBEaQ5eF0XYPvnPeb59N-89" style="edgeStyle=orthogonalEdgeStyle;rounded=0;orthogonalLoop=1;jettySize=auto;html=1;" edge="1" parent="1" source="bBEaQ5eF0XYPvnPeb59N-84" target="bBEaQ5eF0XYPvnPeb59N-79">
          <mxGeometry relative="1" as="geometry" />
        </mxCell>
      </root>
    </mxGraphModel>
  </diagram>
</mxfile>
